<svg width="30" height="30" viewBox="0 0 30 30" fill="none" xmlns="http://www.w3.org/2000/svg">
<path d="M30 15C30 23.2843 23.2843 30 15 30C6.71573 30 0 23.2843 0 15C0 6.71573 6.71573 0 15 0C23.2843 0 30 6.71573 30 15Z" fill="#E0C7FF"/>
<path d="M8.5478 17.752L2.8358 15.58V14.02L8.5478 11.848V13.348L3.3998 15.22V14.38L8.5478 16.252V17.752ZM10.1154 19V10.6H12.0714L15.5514 16.312H14.5194L17.9034 10.6H19.8594L19.8834 19H17.6994L17.6754 13.924H18.0474L15.5154 18.172H14.4594L11.8554 13.924H12.3114V19H10.1154ZM21.4686 17.752V16.252L26.6166 14.38V15.22L21.4686 13.348V11.848L27.1806 14.02V15.58L21.4686 17.752Z" fill="#090A0B"/>
</svg>
